<?xml version="1.0" encoding="utf-8"?>
<svg version="1.1" id="Capa_1" x="0px" y="0px" viewBox="0 0 512 512" style="enable-background:new 0 0 512 512;" xmlns="http://www.w3.org/2000/svg" xmlns:bx="https://boxy-svg.com">
  <path style="fill: rgb(61, 180, 219);" d="M 271.832 171.634 C 265.21 166.445 255.348 166.445 248.724 170.726 L 177.39 230.043 C 174.198 232.1 172.405 234.894 172.404 237.809 L 172.404 501.031 C 172.404 507.089 179.997 512 189.364 512 L 325.039 512 C 334.406 512 341.999 507.089 341.999 501.031 L 341.999 237.809 C 342.008 234.897 340.227 232.104 337.047 230.043 L 271.832 171.634 Z"/>
  <path style="fill: rgb(32, 137, 172);" d="M 437.148 65.799 C 431.106 60.631 421.311 60.631 415.268 65.799 L 353.373 118.747 C 350.461 121.231 348.825 124.603 348.823 128.12 L 348.823 498.763 C 348.823 506.074 355.752 512.001 364.298 512.001 L 488.087 512.001 C 496.633 512.001 503.561 506.074 503.561 498.763 L 503.561 128.12 C 503.568 124.607 501.944 121.235 499.042 118.747 L 437.148 65.799 Z"/>
  <path d="M 494.443 300.599 C 494.95 304.522 504.726 329.069 504.722 330.066 L 504.708 330.618 L 505.126 330.584 L 505.119 330.59 L 505.056 330.596 L 504.873 330.844 C 504.901 330.806 504.947 330.752 504.997 330.704 C 505.051 330.662 505.122 330.615 505.188 330.584 C 505.194 330.583 505.201 330.582 505.209 330.58 C 505.194 330.584 505.183 330.587 505.188 330.585 C 505.195 330.583 505.224 330.579 505.259 330.575 C 505.359 330.568 505.489 330.577 505.567 330.619 C 505.591 330.632 505.615 330.651 505.637 330.676 L 505.574 330.638 C 505.593 330.649 505.619 330.667 505.647 330.688 C 505.737 330.793 505.81 330.971 505.833 331.063 L 505.771 330.808 C 505.811 330.875 505.84 330.989 505.849 331.098 C 505.831 331.219 505.786 331.351 505.728 331.412 C 505.664 331.48 505.477 331.552 505.367 331.578 L 505.666 331.506 C 505.579 331.572 505.487 331.614 505.454 331.623 C 505.371 331.645 505.369 331.641 505.348 331.644 C 505.168 331.73 504.918 331.843 504.417 332.056 L 504.14 332.172 L 504.114 332.471 C 504.097 332.661 504.09 332.747 504.087 332.817 C 504.083 332.884 504.082 332.937 504.078 333.062 L 504.061 333.507 L 504.061 333.979 L 503.91 333.543 L 503.061 333.543 L 503.061 331.964 C 501.417 331.772 497.257 331.372 492.365 330.894 C 489.919 330.655 487.548 330.422 485.812 330.242 C 484.944 330.152 484.231 330.074 483.747 330.016 C 483.504 329.987 483.311 329.962 483.187 329.942 C 483.122 329.932 483.055 329.92 483.014 329.909 C 482.98 329.9 482.887 329.867 482.829 329.827 C 482.794 329.802 482.711 329.72 482.677 329.659 C 482.624 329.564 482.609 329.307 482.663 329.196 C 482.725 329.067 482.918 328.955 482.973 328.931 L 481.357 329.618 L 427.088 320.396 C 415.497 319.346 413.065 319.594 393.057 315.778 C 380.55 313.387 369.445 310.922 361.472 308.596 C 357.481 307.432 354.245 306.294 352.016 305.215 C 350.894 304.673 349.997 304.133 349.387 303.602 C 348.739 303.055 348.323 302.364 348.323 301.774 C 348.323 289.518 381.715 261.724 387.621 256.696 L 388.056 256.326 L 387.631 255.944 L 282.21 161.35 L 282.162 161.308 L 282.074 161.261 L 282.044 161.238 C 273.727 155.02 259.484 153.104 250.402 156.699 L 235.402 168.009 L 214.257 186.769 L 173.265 220.571 L 101.351 278.974 C 99.178 281.085 95.308 282.836 91.437 283.494 C 87.567 284.171 83.567 283.64 81.3 281.549 L 15.241 231.931 L 15.235 231.937 L 15.203 231.903 L 15.167 231.876 L 15.172 231.869 C 13.133 229.71 12.056 226.866 12.056 224.12 C 12.056 221.367 13.138 218.524 15.18 216.361 C 17.312 214.185 20.183 212.988 22.991 212.955 C 25.801 212.889 28.659 213.966 30.862 216.038 L 30.882 216.057 L 30.914 216.079 L 89.709 257.736 L 90.014 257.952 L 90.307 257.721 L 138.179 219.803 L 172.634 192.783 L 202.65 167.242 L 230.706 142.981 C 238.483 136.177 240.061 136.094 250.89 130.771 C 250.932 130.723 251.003 130.669 251.036 130.65 C 251.11 130.605 251.251 130.551 251.397 130.505 C 251.671 130.419 252.132 130.298 252.728 130.164 C 253.911 129.898 255.696 129.566 257.809 129.308 C 262.024 128.794 267.656 128.575 272.622 129.729 C 283.093 132.196 289.165 135.934 289.165 135.934 L 289.199 135.954 L 301.25 146.395 L 316.352 158.005 L 336.21 177.232 C 353.464 190.546 366.314 201.91 381.822 215.684 L 404.846 235.444 L 405.219 235.764 L 405.546 235.394 C 405.678 235.245 405.834 235.063 406.013 234.849 C 406.807 233.898 407.942 232.434 409.336 230.614 C 412.123 226.973 415.928 221.936 420.032 216.834 C 428.238 206.636 437.82 196.145 442.924 195.995 C 445.361 196.056 447.735 197.693 449.751 200.108 C 451.777 202.513 453.607 205.735 455.131 208.919 C 456.634 212.055 457.394 213.193 457.818 213.673 C 457.991 213.869 458.076 213.919 458.188 213.999 C 458.318 214.091 458.466 214.28 458.59 214.587 L 458.549 214.486 L 458.569 214.53 L 460.961 219.906 L 463.613 227.816 C 464.295 229.136 465.391 231.51 468.315 238.669 C 471.585 246.678 474.781 255.977 475.88 258.777 C 476.969 261.553 480.41 267.555 482.484 274.121 L 489.412 289.967 L 494.433 300.521 Z M 488.505 290.39 L 481.557 274.497 L 481.546 274.472 L 481.538 274.447 C 479.509 267.969 476.071 261.985 474.95 259.143 C 473.843 256.323 470.649 247.03 467.389 239.047 C 464.475 231.908 463.377 229.533 462.707 228.242 L 462.689 228.208 L 460.021 220.247 L 457.634 214.888 L 457.634 214.879 C 457.634 214.848 457.638 214.834 457.641 214.829 C 457.636 214.829 457.626 214.826 457.609 214.814 C 457.53 214.758 457.343 214.646 457.069 214.335 C 456.599 213.803 455.767 212.548 454.229 209.351 C 452.721 206.199 450.959 203.081 448.986 200.753 C 447.066 198.425 445.072 196.964 442.921 196.995 C 438.18 196.99 428.998 207.284 420.812 217.46 C 416.716 222.55 412.919 227.579 410.13 231.222 C 408.734 233.044 407.586 234.525 406.781 235.49 C 406.598 235.708 406.432 235.902 406.294 236.057 L 405.317 237.166 L 404.194 236.202 L 381.167 216.44 C 365.659 202.666 352.817 191.306 335.577 178.007 L 335.554 177.99 L 315.698 158.763 L 300.629 147.179 L 288.606 136.764 C 288.118 136.468 282.717 133.108 272.394 130.703 C 267.562 129.561 262.105 129.792 257.93 130.301 C 255.848 130.555 254.112 130.878 252.947 131.14 C 252.478 131.245 252.114 131.337 251.859 131.411 L 251.544 131.564 C 240.302 137.043 238.866 137.007 231.369 143.729 L 203.303 168 L 173.274 193.551 L 138.798 220.589 L 90.927 258.505 L 90.34 258.969 L 90.046 259.2 L 89.131 258.552 L 30.335 216.895 L 30.275 216.852 L 30.248 216.833 L 30.18 216.77 C 28.147 214.804 25.634 213.857 23.015 213.955 C 20.395 213.948 17.865 214.994 15.9 217.056 C 13.966 219.047 13.056 221.541 13.056 224.12 C 13.056 226.695 13.956 229.17 15.871 231.154 L 81.948 280.785 L 81.967 280.804 C 83.943 282.78 87.543 283.182 91.265 282.509 C 95.014 281.888 98.644 280.263 100.667 278.244 L 172.633 219.796 L 213.614 186.003 L 234.753 167.248 L 249.854 155.86 L 249.909 155.819 L 249.971 155.794 C 259.3 152.135 274.055 154.119 282.609 160.412 L 282.738 160.48 L 282.877 160.605 L 388.299 255.2 L 389.15 255.964 L 389.576 256.346 L 388.269 257.458 C 382.359 262.49 349.323 289.902 349.323 301.774 C 349.323 302.112 349.487 302.415 350.018 302.826 C 350.555 303.305 351.368 303.795 352.45 304.313 C 354.626 305.37 357.787 306.48 361.752 307.636 C 369.693 309.954 380.752 312.407 393.245 314.796 C 413.107 318.606 415.493 318.351 427.198 319.402 L 431.416 320.119 L 431.453 319.807 C 433.466 320.009 435.75 320.252 438.343 320.548 C 442.985 321.255 450.986 322.482 459.81 323.831 L 459.664 324.821 L 456.186 324.327 L 483.202 328.917 L 483.731 329.007 C 483.561 328.986 483.432 328.969 483.343 328.955 C 483.291 328.946 483.272 328.943 483.264 328.941 C 483.273 328.943 483.35 328.971 483.401 329.006 C 483.434 329.029 483.516 329.11 483.549 329.17 C 483.602 329.264 484.842 329.196 484.842 329.196 L 483.731 329.007 C 483.773 329.012 483.819 329.018 483.866 329.023 C 484.344 329.081 485.049 329.157 485.915 329.247 C 487.649 329.427 490.016 329.66 492.462 329.899 C 496.714 330.314 501.208 330.748 503.01 330.952 L 502.623 329.837 L 503.536 329.438 L 503.596 329.549 C 502.461 325.973 494.071 304.79 493.463 300.81 Z" style="fill: none;"/>
  <path d="M 494.443 300.599 C 494.95 304.522 504.726 329.069 504.722 330.066 L 504.708 330.618 L 505.126 330.584 L 505.119 330.59 L 505.056 330.596 L 504.873 330.844 C 504.901 330.806 504.947 330.752 504.997 330.704 C 505.051 330.662 505.122 330.615 505.188 330.584 C 505.194 330.583 505.201 330.582 505.209 330.58 C 505.194 330.584 505.183 330.587 505.188 330.585 C 505.195 330.583 505.224 330.579 505.259 330.575 C 505.359 330.568 505.489 330.577 505.567 330.619 C 505.591 330.632 505.615 330.651 505.637 330.676 L 505.574 330.638 C 505.593 330.649 505.619 330.667 505.647 330.688 C 505.737 330.793 505.81 330.971 505.833 331.063 L 505.771 330.808 C 505.811 330.875 505.84 330.989 505.849 331.098 C 505.831 331.219 505.786 331.351 505.728 331.412 C 505.664 331.48 505.477 331.552 505.367 331.578 L 505.666 331.506 C 505.579 331.572 505.487 331.614 505.454 331.623 C 505.371 331.645 505.369 331.641 505.348 331.644 C 505.168 331.73 504.918 331.843 504.417 332.056 L 504.14 332.172 L 504.114 332.471 C 504.097 332.661 504.09 332.747 504.087 332.817 C 504.083 332.884 504.082 332.937 504.078 333.062 L 504.061 333.507 L 504.061 333.979 L 503.91 333.543 L 503.061 333.543 L 503.061 331.964 C 501.417 331.772 497.257 331.372 492.365 330.894 C 489.919 330.655 487.548 330.422 485.812 330.242 C 484.944 330.152 484.231 330.074 483.747 330.016 C 483.504 329.987 483.311 329.962 483.187 329.942 C 483.122 329.932 483.055 329.92 483.014 329.909 C 482.98 329.9 482.887 329.867 482.829 329.827 C 482.794 329.802 482.711 329.72 482.677 329.659 C 482.624 329.564 482.609 329.307 482.663 329.196 C 482.725 329.067 482.918 328.955 482.973 328.931 L 481.357 329.618 L 427.088 320.396 C 415.497 319.346 413.065 319.594 393.057 315.778 C 380.55 313.387 369.445 310.922 361.472 308.596 C 357.481 307.432 354.245 306.294 352.016 305.215 C 350.894 304.673 349.997 304.133 349.387 303.602 C 348.739 303.055 348.323 302.364 348.323 301.774 C 348.323 289.518 381.715 261.724 387.621 256.696 L 388.056 256.326 L 387.631 255.944 L 282.21 161.35 L 282.162 161.308 L 282.074 161.261 L 282.044 161.238 C 273.727 155.02 259.484 153.104 250.402 156.699 L 235.402 168.009 L 214.257 186.769 L 173.265 220.571 L 101.351 278.974 C 99.178 281.085 95.308 282.836 91.437 283.494 C 87.567 284.171 83.567 283.64 81.3 281.549 L 15.241 231.931 L 15.235 231.937 L 15.203 231.903 L 15.167 231.876 L 15.172 231.869 C 13.133 229.71 12.056 226.866 12.056 224.12 C 12.056 221.367 13.138 218.524 15.18 216.361 C 17.312 214.185 20.183 212.988 22.991 212.955 C 25.801 212.889 28.659 213.966 30.862 216.038 L 30.882 216.057 L 30.914 216.079 L 89.709 257.736 L 90.014 257.952 L 90.307 257.721 L 138.179 219.803 L 172.634 192.783 L 202.65 167.242 L 230.706 142.981 C 238.483 136.177 240.061 136.094 250.89 130.771 C 250.932 130.723 251.003 130.669 251.036 130.65 C 251.11 130.605 251.251 130.551 251.397 130.505 C 251.671 130.419 252.132 130.298 252.728 130.164 C 253.911 129.898 255.696 129.566 257.809 129.308 C 262.024 128.794 267.656 128.575 272.622 129.729 C 283.093 132.196 289.165 135.934 289.165 135.934 L 289.199 135.954 L 301.25 146.395 L 316.352 158.005 L 336.21 177.232 C 353.464 190.546 366.314 201.91 381.822 215.684 L 404.846 235.444 L 405.219 235.764 L 405.546 235.394 C 405.678 235.245 405.834 235.063 406.013 234.849 C 406.807 233.898 407.942 232.434 409.336 230.614 C 412.123 226.973 415.928 221.936 420.032 216.834 C 428.238 206.636 437.82 196.145 442.924 195.995 C 445.361 196.056 447.735 197.693 449.751 200.108 C 451.777 202.513 453.607 205.735 455.131 208.919 C 456.634 212.055 457.394 213.193 457.818 213.673 C 457.991 213.869 458.076 213.919 458.188 213.999 C 458.318 214.091 458.466 214.28 458.59 214.587 L 458.549 214.486 L 458.569 214.53 L 460.961 219.906 L 463.613 227.816 C 464.295 229.136 465.391 231.51 468.315 238.669 C 471.585 246.678 474.781 255.977 475.88 258.777 C 476.969 261.553 480.41 267.555 482.484 274.121 L 489.412 289.967 L 494.433 300.521 Z M 488.505 290.39 L 481.557 274.497 L 481.546 274.472 L 481.538 274.447 C 479.509 267.969 476.071 261.985 474.95 259.143 C 473.843 256.323 470.649 247.03 467.389 239.047 C 464.475 231.908 463.377 229.533 462.707 228.242 L 462.689 228.208 L 460.021 220.247 L 457.634 214.888 L 457.634 214.879 C 457.634 214.848 457.638 214.834 457.641 214.829 C 457.636 214.829 457.626 214.826 457.609 214.814 C 457.53 214.758 457.343 214.646 457.069 214.335 C 456.599 213.803 455.767 212.548 454.229 209.351 C 452.721 206.199 450.959 203.081 448.986 200.753 C 447.066 198.425 445.072 196.964 442.921 196.995 C 438.18 196.99 428.998 207.284 420.812 217.46 C 416.716 222.55 412.919 227.579 410.13 231.222 C 408.734 233.044 407.586 234.525 406.781 235.49 C 406.598 235.708 406.432 235.902 406.294 236.057 L 405.317 237.166 L 404.194 236.202 L 381.167 216.44 C 365.659 202.666 352.817 191.306 335.577 178.007 L 335.554 177.99 L 315.698 158.763 L 300.629 147.179 L 288.606 136.764 C 288.118 136.468 282.717 133.108 272.394 130.703 C 267.562 129.561 262.105 129.792 257.93 130.301 C 255.848 130.555 254.112 130.878 252.947 131.14 C 252.478 131.245 252.114 131.337 251.859 131.411 L 251.544 131.564 C 240.302 137.043 238.866 137.007 231.369 143.729 L 203.303 168 L 173.274 193.551 L 138.798 220.589 L 90.927 258.505 L 90.34 258.969 L 90.046 259.2 L 89.131 258.552 L 30.335 216.895 L 30.275 216.852 L 30.248 216.833 L 30.18 216.77 C 28.147 214.804 25.634 213.857 23.015 213.955 C 20.395 213.948 17.865 214.994 15.9 217.056 C 13.966 219.047 13.056 221.541 13.056 224.12 C 13.056 226.695 13.956 229.17 15.871 231.154 L 81.948 280.785 L 81.967 280.804 C 83.943 282.78 87.543 283.182 91.265 282.509 C 95.014 281.888 98.644 280.263 100.667 278.244 L 172.633 219.796 L 213.614 186.003 L 234.753 167.248 L 249.854 155.86 L 249.909 155.819 L 249.971 155.794 C 259.3 152.135 274.055 154.119 282.609 160.412 L 282.738 160.48 L 282.877 160.605 L 388.299 255.2 L 389.15 255.964 L 389.576 256.346 L 388.269 257.458 C 382.359 262.49 349.323 289.902 349.323 301.774 C 349.323 302.112 349.487 302.415 350.018 302.826 C 350.555 303.305 351.368 303.795 352.45 304.313 C 354.626 305.37 357.787 306.48 361.752 307.636 C 369.693 309.954 380.752 312.407 393.245 314.796 C 413.107 318.606 415.493 318.351 427.198 319.402 L 431.416 320.119 L 431.453 319.807 C 433.466 320.009 435.75 320.252 438.343 320.548 C 442.985 321.255 450.986 322.482 459.81 323.831 L 459.664 324.821 L 456.186 324.327 L 483.202 328.917 L 483.731 329.007 C 483.561 328.986 483.432 328.969 483.343 328.955 C 483.291 328.946 483.272 328.943 483.264 328.941 C 483.273 328.943 483.35 328.971 483.401 329.006 C 483.434 329.029 483.516 329.11 483.549 329.17 C 483.602 329.264 484.842 329.196 484.842 329.196 L 483.731 329.007 C 483.773 329.012 483.819 329.018 483.866 329.023 C 484.344 329.081 485.049 329.157 485.915 329.247 C 487.649 329.427 490.016 329.66 492.462 329.899 C 496.714 330.314 501.208 330.748 503.01 330.952 L 502.623 329.837 L 503.536 329.438 L 503.596 329.549 C 502.461 325.973 494.071 304.79 493.463 300.81 Z" style="fill: none;"/>
  <g/>
  <g/>
  <g/>
  <g/>
  <g/>
  <g/>
  <g/>
  <g/>
  <g/>
  <g/>
  <g/>
  <g/>
  <g/>
  <g/>
  <g/>
  <path style="fill: rgb(255, 255, 255);" d="M 528.932 431.318 L 468.444 431.318 C 462.878 431.331 456.98 425.987 455.268 419.386 C 454.444 416.201 454.722 413.146 456.042 410.898 L 472.109 383.496 L 372.26 292.793 L 349.22 332.178 C 346.485 336.846 340.103 336.846 334.962 332.178 L 238.955 244.967 L 215.91 284.349 C 213.178 289.019 206.794 289.019 201.655 284.349 L 52.997 149.314 L 29.955 188.698 C 27.138 193.287 20.719 193.154 15.626 188.405 C 10.659 183.77 8.765 176.426 11.346 171.793 L 39.349 123.966 C 42.083 119.299 48.466 119.299 53.603 123.966 L 202.236 258.979 L 225.286 219.619 C 228.02 214.951 234.4 214.951 239.539 219.619 L 335.544 306.807 L 358.588 267.443 C 361.323 262.774 367.703 262.774 372.844 267.443 L 482.008 366.586 L 498.055 339.182 C 499.365 336.931 501.609 335.669 504.288 335.668 C 505.608 335.664 506.996 335.973 508.372 336.576 C 512.617 338.425 516.202 342.787 517.452 347.625 L 535.935 419.364 C 537.636 425.966 534.5 431.318 528.932 431.318" transform="matrix(0.972535, 0.232759, -0.232754, 0.972535, 71.026233, -57.606824)" bx:origin="0.512 0.488"/>
  <path style="fill: rgb(126, 205, 231);" d="M 101.959 289.116 C 95.971 285.718 87.054 285.718 81.065 288.521 L 16.564 327.364 C 13.678 328.711 12.057 330.541 12.056 332.45 L 12.056 504.817 C 12.056 508.784 18.922 512 27.391 512 L 150.069 512 C 158.538 512 165.404 508.784 165.404 504.817 L 165.404 332.45 C 165.412 330.543 163.802 328.714 160.926 327.364 L 101.959 289.116 Z"/>
</svg>